<?xml version="1.0" encoding="UTF-8" standalone="no"?>
<!-- Created with Inkscape (http://www.inkscape.org/) -->

<svg
   xmlns:dc="http://purl.org/dc/elements/1.1/"
   xmlns:cc="http://creativecommons.org/ns#"
   xmlns:rdf="http://www.w3.org/1999/02/22-rdf-syntax-ns#"
   xmlns:svg="http://www.w3.org/2000/svg"
   xmlns="http://www.w3.org/2000/svg"
   xmlns:sodipodi="http://sodipodi.sourceforge.net/DTD/sodipodi-0.dtd"
   xmlns:inkscape="http://www.inkscape.org/namespaces/inkscape"
   width="30"
   height="30"
   id="svg2"
   version="1.1"
   inkscape:version="0.48.2 r9819"
   sodipodi:docname="exercise.svg"
   inkscape:export-filename="/Users/elplatt/Desktop/xsection/exercise.png"
   inkscape:export-xdpi="90"
   inkscape:export-ydpi="90">
  <defs
     id="defs4" />
  <sodipodi:namedview
     id="base"
     pagecolor="#ffffff"
     bordercolor="#666666"
     borderopacity="1.0"
     inkscape:pageopacity="0.0"
     inkscape:pageshadow="2"
     inkscape:zoom="14.142136"
     inkscape:cx="25.114207"
     inkscape:cy="17.713024"
     inkscape:document-units="px"
     inkscape:current-layer="layer1"
     showgrid="true"
     inkscape:window-width="1303"
     inkscape:window-height="769"
     inkscape:window-x="136"
     inkscape:window-y="2"
     inkscape:window-maximized="0">
    <inkscape:grid
       type="xygrid"
       id="grid2985"
       empspacing="5"
       visible="true"
       enabled="true"
       snapvisiblegridlinesonly="true" />
  </sodipodi:namedview>
  <metadata
     id="metadata7">
    <rdf:RDF>
      <cc:Work
         rdf:about="">
        <dc:format>image/svg+xml</dc:format>
        <dc:type
           rdf:resource="http://purl.org/dc/dcmitype/StillImage" />
        <dc:title></dc:title>
      </cc:Work>
    </rdf:RDF>
  </metadata>
  <g
     inkscape:label="Layer 1"
     inkscape:groupmode="layer"
     id="layer1"
     transform="translate(0,-1022.3622)">
    <text
       xml:space="preserve"
       style="font-size:24px;font-style:normal;font-weight:normal;line-height:125%;letter-spacing:0px;word-spacing:0px;fill:#000000;fill-opacity:1;stroke:none;font-family:Sans"
       x="6.4346719"
       y="16.211418"
       id="text4150"
       sodipodi:linespacing="125%"
       transform="translate(0,1022.3622)"><tspan
         sodipodi:role="line"
         id="tspan4152"
         x="6.4346719"
         y="16.211418" /></text>
    <path
       style="fill:#000000;fill-opacity:1;stroke:none"
       d="M 15 8 C 11.134007 7.9999997 8.0000002 12.701029 8 18.5 L 15 18.5 L 22 18.5 C 22 12.701029 18.865993 8.0000003 15 8 z M 15 9.5 C 17.209139 9.5000001 19 11.067003 19 13 L 15 13 L 11 13 C 11 11.067003 12.790861 9.4999999 15 9.5 z "
       transform="translate(0,1022.3622)"
       id="path4245" />
    <path
       sodipodi:type="arc"
       style="fill:#000000;fill-opacity:1;stroke:none"
       id="path4249"
       sodipodi:cx="7.5"
       sodipodi:cy="21.5"
       sodipodi:rx="3.5"
       sodipodi:ry="3.5"
       d="m 11,21.5 a 3.5,3.5 0 1 1 -7,0 3.5,3.5 0 1 1 7,0 z"
       transform="translate(0.5,1019.3622)" />
    <path
       sodipodi:type="arc"
       style="fill:#000000;fill-opacity:1;stroke:none"
       id="path4251"
       sodipodi:cx="18.5"
       sodipodi:cy="23.5"
       sodipodi:rx="3.5"
       sodipodi:ry="3.5"
       d="m 22,23.5 a 3.5,3.5 0 1 1 -7,0 3.5,3.5 0 1 1 7,0 z"
       transform="translate(2.5,1017.3622)" />
    <path
       sodipodi:type="arc"
       style="fill:#000000;fill-opacity:1;stroke:none"
       id="path4255"
       sodipodi:cx="9.5"
       sodipodi:cy="15.5"
       sodipodi:rx="6.5"
       sodipodi:ry="5.5"
       d="m 3,15.5 a 6.5,5.5 0 0 1 13,0 l -6.5,0 z"
       transform="matrix(1,0,0,1.181809,-0.5,1022.5441)"
       sodipodi:start="3.1415927"
       sodipodi:end="6.2831853" />
    <path
       sodipodi:type="arc"
       style="fill:#000000;fill-opacity:1;stroke:none"
       id="path4257"
       sodipodi:cx="19.5"
       sodipodi:cy="14"
       sodipodi:rx="7.5"
       sodipodi:ry="4"
       d="m 12,14 a 7.5,4 0 0 1 15,0 l -7.5,0 z"
       transform="matrix(1,0,0,1.25,0.5,1022.8622)"
       sodipodi:start="3.1415927"
       sodipodi:end="6.2831853" />
  </g>
</svg>
