<?xml version="1.0" encoding="UTF-8" standalone="no"?>
<!-- Created with Inkscape (http://www.inkscape.org/) -->

<svg
   xmlns:dc="http://purl.org/dc/elements/1.1/"
   xmlns:cc="http://creativecommons.org/ns#"
   xmlns:rdf="http://www.w3.org/1999/02/22-rdf-syntax-ns#"
   xmlns:svg="http://www.w3.org/2000/svg"
   xmlns="http://www.w3.org/2000/svg"
   xmlns:sodipodi="http://sodipodi.sourceforge.net/DTD/sodipodi-0.dtd"
   xmlns:inkscape="http://www.inkscape.org/namespaces/inkscape"
   width="30"
   height="30"
   id="svg2"
   version="1.1"
   inkscape:version="0.48.2 r9819"
   sodipodi:docname="job.svg"
   inkscape:export-filename="/Users/elplatt/Desktop/xsection/job.png"
   inkscape:export-xdpi="90"
   inkscape:export-ydpi="90">
  <defs
     id="defs4" />
  <sodipodi:namedview
     id="base"
     pagecolor="#ffffff"
     bordercolor="#666666"
     borderopacity="1.0"
     inkscape:pageopacity="0.0"
     inkscape:pageshadow="2"
     inkscape:zoom="14.142136"
     inkscape:cx="7.7143772"
     inkscape:cy="13.656854"
     inkscape:document-units="px"
     inkscape:current-layer="layer1"
     showgrid="true"
     inkscape:window-width="1303"
     inkscape:window-height="769"
     inkscape:window-x="116"
     inkscape:window-y="53"
     inkscape:window-maximized="0">
    <inkscape:grid
       type="xygrid"
       id="grid2985"
       empspacing="5"
       visible="true"
       enabled="true"
       snapvisiblegridlinesonly="true" />
  </sodipodi:namedview>
  <metadata
     id="metadata7">
    <rdf:RDF>
      <cc:Work
         rdf:about="">
        <dc:format>image/svg+xml</dc:format>
        <dc:type
           rdf:resource="http://purl.org/dc/dcmitype/StillImage" />
        <dc:title></dc:title>
      </cc:Work>
    </rdf:RDF>
  </metadata>
  <g
     inkscape:label="Layer 1"
     inkscape:groupmode="layer"
     id="layer1"
     transform="translate(0,-1022.3622)">
    <path
       style="fill:#000000;stroke:none;stroke-width:1px;stroke-linecap:butt;stroke-linejoin:miter;stroke-opacity:1;fill-opacity:1"
       d="M 12 11.25 L 3 15 L 3 20 L 15 25 L 27 20 L 27 15 L 18 11.25 L 18 16 C 18 16.552285 16.656854 17 15 17 C 13.343146 17 12 16.552285 12 16 L 12 11.25 z M 22 14 C 22.552285 14 23 14.447715 23 15 C 23 15.552285 22.552285 16 22 16 C 21.447715 16 21 15.552285 21 15 C 21 14.447715 21.447715 14 22 14 z M 5 16 L 15 20 L 25 16 L 25 17 L 15 21 L 5 17 L 5 16 z "
       transform="translate(0,1022.3622)"
       id="path4029" />
    <rect
       style="fill:#000000;fill-opacity:1;stroke:none"
       id="rect4039"
       width="4"
       height="12"
       x="13"
       y="1025.3622" />
    <path
       sodipodi:type="arc"
       style="fill:#000000;fill-opacity:1;stroke:none"
       id="path4041"
       sodipodi:cx="15"
       sodipodi:cy="3.5"
       sodipodi:rx="2"
       sodipodi:ry="1.5"
       d="m 17,3.5 a 2,1.5 0 1 1 -4,0 2,1.5 0 1 1 4,0 z"
       transform="translate(0,1022.3622)" />
    <path
       sodipodi:type="arc"
       style="fill:#000000;fill-opacity:1;stroke:none"
       id="path4065"
       sodipodi:cx="15"
       sodipodi:cy="15"
       sodipodi:rx="2"
       sodipodi:ry="1"
       d="m 17,15 a 2,1 0 1 1 -4,0 2,1 0 1 1 4,0 z"
       transform="translate(0,1022.3622)" />
  </g>
</svg>
