<?xml version="1.0" encoding="UTF-8" standalone="no"?>
<!-- Created with Inkscape (http://www.inkscape.org/) -->

<svg
   xmlns:dc="http://purl.org/dc/elements/1.1/"
   xmlns:cc="http://creativecommons.org/ns#"
   xmlns:rdf="http://www.w3.org/1999/02/22-rdf-syntax-ns#"
   xmlns:svg="http://www.w3.org/2000/svg"
   xmlns="http://www.w3.org/2000/svg"
   xmlns:sodipodi="http://sodipodi.sourceforge.net/DTD/sodipodi-0.dtd"
   xmlns:inkscape="http://www.inkscape.org/namespaces/inkscape"
   width="30"
   height="30"
   id="svg2"
   version="1.1"
   inkscape:version="0.48.2 r9819"
   sodipodi:docname="city.svg">
  <defs
     id="defs4" />
  <sodipodi:namedview
     id="base"
     pagecolor="#ffffff"
     bordercolor="#666666"
     borderopacity="1.0"
     inkscape:pageopacity="0.0"
     inkscape:pageshadow="2"
     inkscape:zoom="14.142136"
     inkscape:cx="7.7143772"
     inkscape:cy="13.656854"
     inkscape:document-units="px"
     inkscape:current-layer="layer1"
     showgrid="true"
     inkscape:window-width="1303"
     inkscape:window-height="769"
     inkscape:window-x="208"
     inkscape:window-y="23"
     inkscape:window-maximized="0">
    <inkscape:grid
       type="xygrid"
       id="grid2985"
       empspacing="5"
       visible="true"
       enabled="true"
       snapvisiblegridlinesonly="true" />
  </sodipodi:namedview>
  <metadata
     id="metadata7">
    <rdf:RDF>
      <cc:Work
         rdf:about="">
        <dc:format>image/svg+xml</dc:format>
        <dc:type
           rdf:resource="http://purl.org/dc/dcmitype/StillImage" />
        <dc:title></dc:title>
      </cc:Work>
    </rdf:RDF>
  </metadata>
  <g
     inkscape:label="Layer 1"
     inkscape:groupmode="layer"
     id="layer1"
     transform="translate(0,-1022.3622)">
    <path
       style="fill:#000000;fill-opacity:1;stroke:none"
       d="m 15,1029.3622 -13,5 5,1.9375 0,0.062 0.1875,0 7.8125,3 4.0625,-1.5625 -4.0625,-2.4375 0,-1 1,0 5.21875,2.625 1.59375,-0.625 0.1875,0 0,-0.062 5,-1.9375 -13,-5 z m -8,9.1563 0,2.3437 0,0.5 0.15625,0 c 0.7459701,1.1392 3.977757,2 7.84375,2 1.065197,0 2.069828,-0.069 3,-0.1875 l 0,-2.875 -3,1.0625 -8,-2.8437 z m 16,0 -0.9375,0.3125 0.40625,2.9062 c 0.152445,-0.124 0.28805,-0.2422 0.375,-0.375 l 0.15625,0 0,-0.5 0,-2.3437 z m -2,0.7187 -2,0.6875 0,3.0938 c 0.957979,-0.1744 1.780764,-0.4108 2.4375,-0.6875 L 21,1039.3622 l 0,-0.125 z"
       id="rect3820"
       inkscape:connector-curvature="0" />
    <path
       style="fill:#000000;fill-opacity:1;stroke:none"
       d="m 19,1046.3622 3,0 -1,-7 -2,1 z"
       id="path3842"
       inkscape:connector-curvature="0" />
  </g>
</svg>
